<svg xmlns="http://www.w3.org/2000/svg" viewBox="0 0 746.89 566.34"><defs><style>.cls-1{fill:#3488e8;stroke:#086ce5;stroke-miterlimit:10;}</style></defs><g id="Layer_2" data-name="Layer 2"><g id="Layer_2-2" data-name="Layer 2"><path class="cls-1" d="M381.23,2.11c5.44,3,9.76,7.27,14.19,11.56l1.71,1.65q2.73,2.64,5.41,5.29l1.77,1.72c1.41,1.41,2.76,2.87,4.11,4.34v2h2v2h2v2l1.77.79c4,2.17,6.92,5.57,10.1,8.77l2.11,2.06c6.26,6.26,13,13.29,13.33,22.57l.12,2.17c-1.56,9.66-9.09,15.91-15.7,22.47-1.11,1.13-2.23,2.25-3.35,3.38l-7,7q-4.5,4.47-8.95,9-3.45,3.48-6.94,7-1.65,1.65-3.29,3.31C383,132.9,383,132.9,374,134c-11.13-1.23-18.6-9.86-26.12-17.43l-2.95-2.94-6.13-6.15q-3.9-3.92-7.82-7.81-3-3-6.08-6.08l-4.27-4.26c-12.76-12.89-12.76-12.89-13.45-21.86,1-15.5,18.8-27.59,29.08-37.93q3-3.07,6.08-6.16,3.69-3.76,7.41-7.5c1.39-1.39,2.76-2.8,4.13-4.2C361.47,4.05,370.19-2.68,381.23,2.11Z"/><path class="cls-1" d="M251.63,101.71c31.15,15.33,59.67,35.8,85.08,59.39,5.48,4.94,11.21,9.52,15.81,15.34,5.76,6.37,18.6,18.27,20,21.23v2c11.25-11.4,21.92-23.31,33.33-34.55a192.21,192.21,0,0,1,16.09-14.36c6.47-5.42,12.7-11.07,19.64-15.9A413.15,413.15,0,0,1,575.26,69.6c5.94-1.64,12.08-3,18.24-1.93,3.06,1.84,3.85,2.55,5,6,.45,33,.14,66,.32,99,0,9.23,0,18.46.06,27.69,0,10.58,0,10.58-3.38,15.34-5.45,5.16-12.66,5.55-19.81,6.81-61.4,10.32-120.44,39.18-167.4,79.85a253.39,253.39,0,0,0-21.37,20.08c-4.54,4.68-7.48,7.21-14.23,7.32-5.43-.92-8.44-4.26-12.19-8.06-47.39-48.74-111.16-84.25-178.11-96.78-4.68-.89-9.4-1.77-14.1-2.56-7.66-1.36-13.52-2.49-18.79-8.66-1.76-5.21-1-10.49-1.18-15.93,0-7.32,0-14.64-.07-22,0-33.45-.21-66.89-.24-100.35.63-3.51,2.05-5.2,4.49-7.76C174.61,57.33,231.4,91.27,251.63,101.71Z"/><path class="cls-1" d="M746.36,507.89c0-2.05,0-4.1,0-6.16,0-1.5,0-3,0-4.51q0-6.15,0-12.3,0-6.54,0-13.08,0-10.93,0-21.88,0-14.16-.06-28.33,0-12.25,0-24.52c0-2.61,0-5.23,0-7.84l0-12.56c0-1.54,0-3.07,0-4.61q0-3.23,0-6.46c0-.65,0-1.29,0-1.93,0-2.7.31-5.27-.92-7.72-2.26-2.25-3.56-3.15-6.74-3.6l-3.07,0-3.34,0c-1.75,0-3.49.07-5.24.08-3.91,0-8.63-.72-12.15,1-2.78,2.74-3.59,4.74-3.64,8.65,0,.62,0,1.22,0,1.81,0,2.07,0,4.13,0,6.19,0,1.51,0,3,0,4.53q0,6.17,0,12.34,0,6.57,0,13.13,0,11,0,22,0,12.81,0,25.61,0,12.39,0,24.8c0,3.51,0,7,0,10.52q0,6.3,0,12.6c0,1.55,0,3.09,0,4.64,0,2.16,0,4.31,0,6.47,0,.66,0,1.31,0,1.95,0,3-.09,5.57,1.36,8.32,1.78,1.61,1.78,1.61,6,1.7h1.84l3.89,0c2,0,4.08,0,6.13,0,1.33,0,2.66,0,4,0h1.92c3.31.06,5.77.23,8.33-2.14a11.84,11.84,0,0,0,1.86-7Z"/><path class="cls-1" d="M112.74,399.63c0,2.09.05,4.18,0,6.27q0,2.06,0,4.11v2c0,3.06,0,5.83,1.16,8.71,2.07,1.56,3.82,1.58,6.37,1.59l1.91,0,4,0c2.11,0,4.22-.07,6.33-.08l4.15,0,2,0c2.82,0,5.62.29,8.19-1,1.72-2.45,1.79-4.75,1.81-7.69,0-.59,0-1.16,0-1.74,0-1.22,0-2.44,0-3.67,0-1.92,0-3.84,0-5.76v-5.59c0-3.6.44-7-2.2-9.84a12.47,12.47,0,0,0-6.53-1.43h-1.78l-3.77,0c-2,0-4,0-5.92,0-1.29,0-2.58,0-3.88,0h-1.85c-3.12,0-5.6-.06-8.34,1.62-1.42,2.3-1.62,4.13-1.66,6.81,0,.65,0,1.27,0,1.89Z"/><path class="cls-1" d="M160.07,400c0,2.15.06,4.31.06,6.46,0,1.41,0,2.82,0,4.23l0,2c0,2.93-.16,5.73,1.19,8.41a13.58,13.58,0,0,0,6.34,1.13h5.92c2.11,0,4.21,0,6.32,0l4.13,0h2c2.83,0,5.67.42,8-1.35,1.31-1.75,1.31-1.75,1.37-6.37,0-1,0-1,0-2,0-1.41,0-2.82,0-4.23q0-3.33,0-6.66c0-1.46,0-2.91,0-4.36v-2.08c0-2.93.47-6-1.37-8.39-1.73-1.31-1.73-1.31-5.82-1.38h-1.79l-3.77,0c-2,0-3.95,0-5.93,0q-1.94,0-3.87,0H171c-3.28-.05-5.86.1-8.85,1.6-1.9,2.35-2.11,4-2.15,7,0,.66,0,1.3,0,2C160.06,397.22,160.06,398.59,160.07,400Z"/><path class="cls-1" d="M207.11,400c0,2.15.07,4.31.06,6.46,0,1.41,0,2.82,0,4.23l0,2c0,2.93-.16,5.73,1.19,8.41a13.58,13.58,0,0,0,6.34,1.13h5.92c2.11,0,4.21,0,6.32,0l4.13,0h2c2.83,0,5.67.42,8-1.35,1.32-1.75,1.32-1.75,1.37-6.37,0-1,0-1,0-2,0-1.41,0-2.82,0-4.23q0-3.33,0-6.66c0-1.46,0-2.91,0-4.36v-2.08c0-2.93.47-6-1.37-8.39-1.73-1.31-1.73-1.31-5.82-1.38h-1.79l-3.77,0c-2,0-4,0-5.92,0l-3.88,0h-1.85c-3.28-.05-5.85.1-8.85,1.6-1.9,2.35-2.11,4-2.15,7,0,.66,0,1.3,0,2C207.1,397.22,207.1,398.59,207.11,400Z"/><path class="cls-1" d="M114.08,480.61h-77c1.31-3.88,1.31-3.88,3.31-6.08,5.54-4.69,9.89-5.54,17-5.62h4.82q4.27,0,8.56-.05,7,0,14-.07l3.29,0h6.17a35.4,35.4,0,0,0,4.74-.21c2.42-1.61,2.42-1.61,2.72-3.07,0-.61,0-1.2,0-1.79s0-1.36,0-2,0-1.48,0-2.2v-4.58c0-2.41,0-4.82,0-7.24v-4.72c0-.76,0-1.5,0-2.25v-2.2c0-.69,0-1.36,0-2a17.47,17.47,0,0,0-.22-3.25c-1.61-1.61-1.61-1.61-3.66-1.81H80.43l-8.88,0H52.49a51.41,51.41,0,0,0-35.38,16.6l-1.74,2C3.8,463,.44,478.17.5,495c0,2.4.05,4.8,0,7.2,0,1.6,0,3.19,0,4.79v4.46l0,2a11.53,11.53,0,0,0,.32,3.31c1.35,1.79,2.06,2.36,4.29,2.72H48q12,0,24,0h42.87q18.87,0,37.73,0h12.65l95.1,0c14.59,0,105-.82,122.65-.86H595.74q12.09,0,24.16,0H657c10.3,0,19.9-1,27.72-8.49,8-8.74,9.36-18.18,9.27-29.67,0-1.23,0-2.47,0-3.7,0-2.6,0-5.19,0-7.79,0-3.35,0-6.71-.05-10.06,0-2.64,0-5.27,0-7.91l0-3.76c0-1.8,0-3.6,0-5.39,0-.56,0-1.11,0-1.65a22.87,22.87,0,0,0-.93-7.78c-2.54-1.69-3.82-1.81-6.79-1.85h-1.75l-3.68,0c-1.93,0-3.86,0-5.8,0l-3.78,0h-1.81c-2.67,0-5.22-.34-7.49,1.23-1.05,1.47-1.05,1.47-1.34,3.53,0,.85,0,1.67,0,2.49v2.83c0,1,0,2.05,0,3.05q0,4.85.06,9.67c0,2.8,0,5.61,0,8.41q0,6.93.09,13.87c0,1.44,0,2.84,0,4.24H644.7c0-5.49.1-11,.12-16.46,0-2.79,0-5.59,0-8.38s0-5.48.06-8.22c0-1.06,0-2.09,0-3.13s0-2,0-3.05v-2.83c0-2.51.14-4-1.33-6-1.76-1.22-1.76-1.22-5.73-1.27h-5.43c-1.94,0-3.87,0-5.8,0l-3.78,0h-1.82c-2.66,0-5.21-.31-7.48,1.26-1.05,1.47-1.05,1.47-1.34,3.53,0,.85,0,1.67,0,2.49v2.83c0,1,0,2.05,0,3.05,0,3.23,0,6.45,0,9.67,0,2.8,0,5.61.06,8.41q0,6.93.09,13.87c0,1.44,0,2.84,0,4.24H598.09q.07-8.24.12-16.46c0-2.79,0-5.59,0-8.38s0-5.48.06-8.22c0-1.06,0-2.09,0-3.13s0-2,0-3.05v-2.83c0-2.51.15-4-1.32-6-1.77-1.22-1.77-1.22-5.86-1.27h-5.6c-2,0-4,0-6,0l-3.9,0h-1.87c-2.71,0-5.35-.33-7.67,1.26-1,1.47-1,1.47-1.33,3.53,0,.85,0,1.67,0,2.49v2.83c0,1,0,2.05,0,3.05,0,3.23,0,6.45.05,9.67,0,2.8,0,5.61.06,8.41q0,6.93.09,13.87c0,1.44,0,2.84,0,4.24H552.28c.06-2.72.12-5.43.15-8.14,0-1.12,0-2.24.05-3.37q.07-3.22.11-6.47c-.16-8.8-2.94-15.92-9.15-22.21-7.15-6.18-14.29-8.3-23.66-8.34l-2.85,0c-3.2,0-6.41,0-9.62,0-2.86,0-5.73,0-8.6,0q-8.13,0-16.25,0-9.31,0-18.64.06-19.27,0-38.54.12h-1.6a32.79,32.79,0,0,1,3.5-5.19c3.44-3.21,6.94-3.92,11.46-4h2.06l4.51,0h7.33q9.15-.06,18.31-.07,7.92,0,15.82-.05l7.45,0H501c2.94,0,6,.49,8.44-1.35,1.32-1.74,1.32-1.74,1.41-6.08v-1.89l0-4c0-2.09,0-4.18,0-6.27,0-1.37,0-2.73,0-4.1v-2c.08-3.5.08-6.05-2.07-9-2.8-2.13-4.15-2.32-7.55-2.37l-2,0c-2.26,0-4.53,0-6.79,0-1.63,0-3.25,0-4.88,0q-5.1,0-10.2,0-6.62,0-13.22.05H453.9l-4.95,0c-17.16,0-33,1.41-46.11,13.91-9.25,10.07-13.36,21-13.69,34.62,0,.57,0,1.12,0,1.67q-.22,10.86.18,21.7l.07,2.06a61.56,61.56,0,0,0,.56,6.78c2.41,1.61,2.41,1.61,4.7,1.81h11.58c3.35,0,6.7,0,10.05,0l10.68,0q10.1,0,20.18,0l23.15,0q22.51,0,45-.07h4.84v12.06H384v0l-3.92,0h-4.15c0-7.22.24-16.07.26-22.82q0-4.86,0-9.72c0-.9,0-1.76,0-2.63s0-1.91,0-2.86V439a18.59,18.59,0,0,0-.9-6.75c-2.59-1.72-4-1.81-7-1.85H356.4l-4,0h-1.92c-2.76,0-5.49-.38-7.85,1.24-1,1.47-1,1.47-1.33,3.53,0,1.26,0,1.26,0,2.49v2.83c0,1,0,2,0,3.05,0,3.22,0,6.44.06,9.67q0,4.2.05,8.4,0,6.94.09,13.87c0,1.25,0,3,0,4.73l-38.46.43H241.92c0-7.44.25-16.41.27-23.61q0-4.86,0-9.72c0-.89,0-1.76,0-2.63s0-1.91,0-2.85v-2.72a18.54,18.54,0,0,0-.9-6.74c-2.59-1.73-4-1.81-7-1.85h-1.86l-3.9,0c-2,0-4.09,0-6.14,0l-4,0h-1.92c-2.76,0-5.49-.39-7.85,1.23-1,1.47-1,1.47-1.33,3.53,0,1.26,0,1.26,0,2.49v2.83c0,1,0,2.05,0,3.05,0,3.23,0,6.45.06,9.67,0,2.8,0,5.61,0,8.41q0,6.93.09,13.87c0,2.12,0,3,0,5.09H194.92c0-7.44.25-16.41.27-23.61q0-4.86,0-9.72c0-.89,0-1.76,0-2.63s0-1.91,0-2.85v-2.72a18.54,18.54,0,0,0-.9-6.74c-2.59-1.73-4-1.81-7-1.85h-1.86l-3.9,0c-2,0-4.09,0-6.14,0l-4,0h-1.92c-2.76,0-5.49-.39-7.85,1.23-1,1.47-1,1.47-1.33,3.53,0,1.26,0,1.26,0,2.49v2.83c0,1,0,2.05,0,3.05,0,3.23,0,6.45.06,9.67,0,2.8,0,5.61,0,8.41q0,6.93.09,13.87c0,2.11,0,3,0,5.09H147.92c0-7.44.25-16.41.27-23.61q0-4.86,0-9.72c0-.89,0-1.76,0-2.63s0-1.91,0-2.85v-2.72a18.54,18.54,0,0,0-.9-6.74c-2.59-1.73-4-1.81-7-1.85h-1.86l-3.9,0c-2,0-4.09,0-6.14,0l-4,0h-1.92c-2.76,0-5.49-.39-7.85,1.23-1,1.47-1,1.47-1.33,3.53,0,1.26,0,1.26,0,2.49v2.83c0,1,0,2.05,0,3.05,0,3.23,0,6.45.06,9.67,0,2.8,0,5.61,0,8.41q0,6.93.09,13.87c0,2.14,0,3,0,5.06"/><path class="cls-1" d="M255.16,444.93c0,2.15,0,4.29,0,6.44,0,1.41,0,2.81,0,4.22,0,.68,0,1.35,0,2,0,3.3-.12,6,1.67,8.9a11.14,11.14,0,0,0,6.44,1.63l1.74,0h3.67c1.92,0,3.84-.05,5.76,0H280c2.69,0,5.23.31,7.46-1.38,1.33-1.75,1.33-1.75,1.39-6.49,0-1.05,0-1.05,0-2.07,0-1.45,0-2.9,0-4.34q0-3.42,0-6.84c0-1.49,0-3,0-4.47v-2.14c0-3,.5-6.1-1.38-8.56-1.72-1.31-1.72-1.31-5.71-1.39H280l-3.66,0c-1.93,0-3.85,0-5.78,0-1.25,0-2.51,0-3.77,0H265c-3.07-.05-5.48,0-8.18,1.6-1.45,2.34-1.65,4.22-1.69,6.95l0,1.95C255.17,442.19,255.17,443.56,255.16,444.93Z"/><path class="cls-1" d="M297.52,444.93c0,2.15,0,4.29,0,6.44,0,1.41,0,2.81,0,4.22,0,.68,0,1.35,0,2,0,3.3-.11,6,1.67,8.9a11.18,11.18,0,0,0,6.44,1.63l1.74,0h3.67c1.92,0,3.84-.05,5.77,0h5.58c2.68,0,5.23.31,7.45-1.38,1.34-1.75,1.34-1.75,1.39-6.49,0-1.05,0-1.05,0-2.07,0-1.45,0-2.9,0-4.34q0-3.42,0-6.84c0-1.49,0-3,0-4.47,0-.73,0-1.43,0-2.14,0-3,.5-6.1-1.38-8.56-1.72-1.31-1.72-1.31-5.71-1.39H322.4l-3.67,0c-1.93,0-3.85,0-5.77,0l-3.77,0h-1.81c-3.07-.05-5.48,0-8.18,1.6-1.45,2.34-1.64,4.22-1.69,6.95,0,1,0,1,0,1.95C297.52,442.19,297.52,443.56,297.52,444.93Z"/><path class="cls-1" d="M734.67,541.69l2.07,0h2c1.08,0,2.16,0,3.24-.08.81-.8.81-.8.91-3V536c0-1.61,0-3.22-.1-4.83-1-1-1-1-9.82-1.07l-3.65,0c-1.78-.05-3.57-.09-5.36-.11h-1.71c-3.61-.05-5.35,0-8.34,2a10.65,10.65,0,0,0-2.18,7.07c0,.61,0,1.19,0,1.78v3.77c0,2,.07,4,.07,5.92,0,1.29,0,2.59,0,3.88,0,.63,0,1.24,0,1.85,0,2.77-.13,5.33,1.23,7.82a12.2,12.2,0,0,0,5.83,1.26l1.71,0,3.58.1c1.88,0,3.76.06,5.64.11l3.69.1,1.76,0c2.63.07,5.07.41,7.48-.79,0-.83,0-1.63,0-2.43,0-1.07,0-2.11,0-3.15s0-2.1,0-3.13c-.08-2.54-.08-2.54-.89-3.35-1.64,0-3.28-.07-4.92-.07l-2,0-3.82,0-3,0c-.41-5.68-.41-5.68-.8-11.25l5.1,0Z"/></g></g></svg>